Coordinates
version=1
nRows=16
nColumns=22
inDegrees=yes

Units are S.I. units (second, meters, Newtons, ...)
If the header above contains a line with 'inDegrees', this indicates whether rotational values are in degrees (yes) or radians (no).

endheader
time	pelvis_tilt	pelvis_list	pelvis_rotation	pelvis_tx	pelvis_ty	pelvis_tz	hip_flexion_r	hip_adduction_r	hip_rotation_r	knee_angle_r	ankle_angle_r	subtalar_angle_r	hip_flexion_l	hip_adduction_l	hip_rotation_l	knee_angle_l	ankle_angle_l	subtalar_angle_l	lumbar_extension	lumbar_bending	lumbar_rotation
      3.83000000	     -0.77895873	     -1.45170601	     10.25572878	      0.11379425	      0.95120306	     -0.40106673	     27.74111827	      2.50521553	     -7.43530732	    -56.47709972	      9.19588444	     -6.08498293	      9.11009433	     -4.20053650	     -0.29957778	    -20.90912777	     12.30367011	      2.14120044	     -8.39490768	     -2.60337126	     -6.19490002
      3.84000000	     -0.69840273	     -1.45217488	      9.76602960	      0.12056497	      0.95125544	     -0.40194940	     28.20565986	      2.31532614	     -8.23076472	    -54.74980883	      9.31869761	     -6.00462088	      8.27232204	     -4.26428240	     -0.86430942	    -20.55694474	     12.64156854	      2.00984717	     -8.55716136	     -2.57123180	     -6.57110173
      3.85000000	     -0.63082817	     -1.43186930	      9.26949670	      0.12733581	      0.95113219	     -0.40273886	     28.60320497	      2.12375987	     -9.01781687	    -52.88680839	      9.41341811	     -5.86492903	      7.45687377	     -4.29554291	     -1.43246547	    -20.23166401	     12.99841801	      1.87965848	     -8.71331497	     -2.55980646	     -6.91431869
      3.86000000	     -0.56844979	     -1.38567066	      8.76065053	      0.13412844	      0.95085074	     -0.40341917	     28.92202812	      1.93018683	     -9.79597195	    -50.89075140	      9.48028534	     -5.67496584	      6.65003970	     -4.29219837	     -2.00724157	    -19.92833517	     13.36064271	      1.75427617	     -8.86959244	     -2.57711511	     -7.21769523
      3.87000000	     -0.52641143	     -1.32338734	      8.23934964	      0.14095746	      0.95038370	     -0.40400654	     29.17669728	      1.74402764	    -10.56962561	    -48.76157158	      9.53739621	     -5.47501040	      5.87426187	     -4.26127678	     -2.58190458	    -19.65605475	     13.74794311	      1.63008490	     -9.00236234	     -2.60810141	     -7.48112107
      3.88000000	     -0.48046312	     -1.23965697	      7.70761018	      0.14784898	      0.94977544	     -0.40450340	     29.33787956	      1.55699520	    -11.36568989	    -46.50647876	      9.59143228	     -5.27401303	      5.10125752	     -4.20230203	     -3.16538744	    -19.41028111	     14.14706322	      1.51035549	     -9.13768235	     -2.65759635	     -7.69528044
      3.89000000	     -0.44634893	     -1.13687420	      7.16817137	      0.15481599	      0.94900340	     -0.40494319	     29.42612834	      1.36791034	    -12.19076407	    -44.13787837	      9.65487219	     -5.10362943	      4.34950457	     -4.11239201	     -3.75066972	    -19.19327650	     14.56246678	      1.39513787	     -9.25160285	     -2.71747501	     -7.87329615
      3.90000000	     -0.40935118	     -1.01636291	      6.62499093	      0.16187582	      0.94809887	     -0.40532630	     29.42964264	      1.17287905	    -13.07947589	    -41.67241797	      9.73438915	     -4.97199333	      3.59919233	     -3.99535604	     -4.33557170	    -18.99448965	     14.98609063	      1.29144786	     -9.35823446	     -2.78640164	     -8.00667292
      3.91000000	     -0.38877506	     -0.89460420	      6.08852369	      0.16901648	      0.94702475	     -0.40564826	     29.37704591	      0.99860033	    -14.01414994	    -39.12497348	      9.85439325	     -4.89546284	      2.89472856	     -3.87181438	     -4.92152747	    -18.84903764	     15.44924542	      1.18538753	     -9.43382679	     -2.84505643	     -8.13078032
      3.92000000	     -0.36019120	     -0.76423713	      5.55444087	      0.17626544	      0.94584686	     -0.40591631	     29.25339281	      0.83762934	    -15.01000696	    -36.52831358	      9.98229980	     -4.85890933	      2.18681396	     -3.73211967	     -5.49391402	    -18.71963985	     15.91152426	      1.10575496	     -9.50436226	     -2.89866329	     -8.20952324
      3.93000000	     -0.34061958	     -0.63091406	      5.02308878	      0.18360717	      0.94454176	     -0.40610405	     29.09480878	      0.70730907	    -16.03101832	    -33.91711503	     10.11753716	     -4.85553146	      1.50570915	     -3.58525704	     -6.05997284	    -18.62543267	     16.38030041	      1.06118700	     -9.55130349	     -2.94537923	     -8.25067741
      3.94000000	     -0.36123621	     -0.52392041	      4.50586508	      0.19099895	      0.94306844	     -0.40618752	     28.94205322	      0.65867011	    -16.99117299	    -31.29979682	     10.22787437	     -4.84622330	      0.91324678	     -3.46709378	     -6.61530636	    -18.60670550	     16.89377894	      1.00993600	     -9.54128489	     -2.95153310	     -8.30375434
      3.95000000	     -0.38054831	     -0.42150372	      3.98856755	      0.19847122	      0.94152335	     -0.40616152	     28.76829297	      0.66300763	    -17.89070372	    -28.73803796	     10.29084318	     -4.83187476	      0.33375664	     -3.35381805	     -7.15237826	    -18.61698730	     17.39568658	      1.01650403	     -9.52494934	     -2.94426830	     -8.30270420
      3.96000000	     -0.48624475	     -0.34329096	      3.47302919	      0.20597711	      0.93974925	     -0.40602582	     28.68757270	      0.73920178	    -18.65700742	    -26.27526776	     10.35738354	     -4.79752598	     -0.09960268	     -3.26748689	     -7.69067583	    -18.72414050	     17.90425051	      0.97374137	     -9.39957966	     -2.89943282	     -8.26168508
      3.97000000	     -0.48797213	     -0.26824324	      2.96215082	      0.21360238	      0.93814520	     -0.40577626	     28.47147106	      0.86810098	    -19.29712641	    -23.91490032	     10.27905747	     -4.76632865	     -0.67809121	     -3.18601330	     -8.18707691	    -18.77875385	     18.40797152	      1.13650154	     -9.39271082	     -2.83257071	     -8.23407852
      3.98000000	     -0.57993307	     -0.21817573	      2.45308898	      0.22126441	      0.93633689	     -0.40542490	     28.37499147	      1.03966288	    -19.79823195	    -21.76005498	     10.15978372	     -4.73701542	     -1.10897716	     -3.13400404	     -8.69260638	    -18.92839836	     18.90559145	      1.19873070	     -9.27719232	     -2.72655767	     -8.18335699
